# Blender 4.3.0
# www.blender.org
mtllib legsobj.mtl
o legs
v -0.169114 0.110436 -0.149341
v -0.175885 0.110436 -0.148674
v -0.182396 0.110436 -0.146699
v -0.188397 0.110436 -0.143491
v -0.193656 0.110436 -0.139175
v -0.197973 0.110436 -0.133915
v -0.201180 0.110436 -0.127915
v -0.203155 0.110436 -0.121404
v -0.203822 0.110436 -0.114633
v -0.203155 0.110436 -0.107861
v -0.201180 0.110436 -0.101350
v -0.197973 0.110436 -0.095350
v -0.193656 0.110436 -0.090090
v -0.188397 0.110436 -0.085774
v -0.182396 0.110436 -0.082566
v -0.175885 0.110436 -0.080591
v -0.169114 0.110436 -0.079924
v -0.162343 0.110436 -0.080591
v -0.155832 0.110436 -0.082566
v -0.149831 0.110436 -0.085774
v -0.144571 0.110436 -0.090090
v -0.140255 0.110436 -0.095350
v -0.137048 0.110436 -0.101350
v -0.135073 0.110436 -0.107861
v -0.134406 0.110436 -0.114633
v -0.135073 0.110436 -0.121404
v -0.137048 0.110436 -0.127915
v -0.140255 0.110436 -0.133915
v -0.144571 0.110436 -0.139175
v -0.149831 0.110436 -0.143491
v -0.155832 0.110436 -0.146699
v -0.162343 0.110436 -0.148674
v -0.193458 0.000002 -0.159170
v -0.197737 0.000002 -0.158748
v -0.201851 0.000002 -0.157500
v -0.205643 0.000002 -0.155473
v -0.208966 0.000002 -0.152746
v -0.211694 0.000002 -0.149423
v -0.213720 0.000002 -0.145631
v -0.214968 0.000002 -0.141517
v -0.215390 0.000002 -0.137238
v -0.214968 0.000002 -0.132959
v -0.213720 0.000002 -0.128845
v -0.211694 0.000002 -0.125053
v -0.208966 0.000002 -0.121730
v -0.205643 0.000002 -0.119002
v -0.201851 0.000002 -0.116976
v -0.197737 0.000002 -0.115728
v -0.193458 0.000002 -0.115306
v -0.189180 0.000002 -0.115728
v -0.185065 0.000002 -0.116976
v -0.181274 0.000002 -0.119002
v -0.177950 0.000002 -0.121730
v -0.175223 0.000002 -0.125053
v -0.173196 0.000002 -0.128845
v -0.171948 0.000002 -0.132959
v -0.171527 0.000002 -0.137238
v -0.171948 0.000002 -0.141517
v -0.173196 0.000002 -0.145631
v -0.175223 0.000002 -0.149423
v -0.177950 0.000002 -0.152746
v -0.181274 0.000002 -0.155473
v -0.185065 0.000002 -0.157500
v -0.189180 0.000002 -0.158748
v 0.173047 0.110436 -0.149341
v 0.179819 0.110436 -0.148674
v 0.186330 0.110436 -0.146699
v 0.192330 0.110436 -0.143491
v 0.197590 0.110436 -0.139175
v 0.201906 0.110436 -0.133915
v 0.205114 0.110436 -0.127915
v 0.207089 0.110436 -0.121404
v 0.207756 0.110436 -0.114633
v 0.207089 0.110436 -0.107861
v 0.205114 0.110436 -0.101350
v 0.201906 0.110436 -0.095350
v 0.197590 0.110436 -0.090090
v 0.192330 0.110436 -0.085774
v 0.186330 0.110436 -0.082566
v 0.179819 0.110436 -0.080591
v 0.173047 0.110436 -0.079924
v 0.166276 0.110436 -0.080591
v 0.159765 0.110436 -0.082566
v 0.153765 0.110436 -0.085774
v 0.148505 0.110436 -0.090090
v 0.144189 0.110436 -0.095350
v 0.140981 0.110436 -0.101350
v 0.139006 0.110436 -0.107861
v 0.138339 0.110436 -0.114633
v 0.139006 0.110436 -0.121404
v 0.140981 0.110436 -0.127915
v 0.144189 0.110436 -0.133915
v 0.148505 0.110436 -0.139175
v 0.153765 0.110436 -0.143491
v 0.159765 0.110436 -0.146699
v 0.166276 0.110436 -0.148674
v 0.197392 0.000002 -0.159170
v 0.201670 0.000002 -0.158748
v 0.205785 0.000002 -0.157500
v 0.209576 0.000002 -0.155474
v 0.212900 0.000002 -0.152746
v 0.215627 0.000002 -0.149423
v 0.217654 0.000002 -0.145631
v 0.218902 0.000002 -0.141517
v 0.219323 0.000002 -0.137238
v 0.218902 0.000002 -0.132959
v 0.217654 0.000002 -0.128845
v 0.215627 0.000002 -0.125053
v 0.212900 0.000002 -0.121730
v 0.209576 0.000002 -0.119003
v 0.205785 0.000002 -0.116976
v 0.201670 0.000002 -0.115728
v 0.197392 0.000002 -0.115306
v 0.193113 0.000002 -0.115728
v 0.188999 0.000002 -0.116976
v 0.185207 0.000002 -0.119003
v 0.181884 0.000002 -0.121730
v 0.179156 0.000002 -0.125054
v 0.177130 0.000002 -0.128845
v 0.175882 0.000002 -0.132959
v 0.175460 0.000002 -0.137238
v 0.175882 0.000002 -0.141517
v 0.177130 0.000002 -0.145631
v 0.179156 0.000002 -0.149423
v 0.181884 0.000002 -0.152746
v 0.185207 0.000002 -0.155474
v 0.188999 0.000002 -0.157500
v 0.193113 0.000002 -0.158748
v -0.169114 0.110436 0.151814
v -0.175885 0.110436 0.151147
v -0.182396 0.110436 0.149172
v -0.188397 0.110436 0.145965
v -0.193656 0.110436 0.141648
v -0.197973 0.110436 0.136389
v -0.201180 0.110436 0.130388
v -0.203155 0.110436 0.123877
v -0.203822 0.110436 0.117106
v -0.203155 0.110436 0.110335
v -0.201180 0.110436 0.103824
v -0.197973 0.110436 0.097823
v -0.193656 0.110436 0.092564
v -0.188397 0.110436 0.088247
v -0.182396 0.110436 0.085040
v -0.175885 0.110436 0.083065
v -0.169114 0.110436 0.082398
v -0.162343 0.110436 0.083065
v -0.155832 0.110436 0.085040
v -0.149831 0.110436 0.088247
v -0.144571 0.110436 0.092564
v -0.140255 0.110436 0.097823
v -0.137048 0.110436 0.103824
v -0.135073 0.110436 0.110335
v -0.134406 0.110436 0.117106
v -0.135073 0.110436 0.123877
v -0.137048 0.110436 0.130388
v -0.140255 0.110436 0.136389
v -0.144571 0.110436 0.141648
v -0.149831 0.110436 0.145965
v -0.155832 0.110436 0.149172
v -0.162343 0.110436 0.151147
v -0.193458 0.000002 0.161643
v -0.197737 0.000002 0.161222
v -0.201851 0.000002 0.159974
v -0.205643 0.000002 0.157947
v -0.208966 0.000002 0.155219
v -0.211694 0.000002 0.151896
v -0.213720 0.000002 0.148104
v -0.214968 0.000002 0.143990
v -0.215390 0.000002 0.139711
v -0.214968 0.000002 0.135433
v -0.213720 0.000002 0.131319
v -0.211694 0.000002 0.127527
v -0.208966 0.000002 0.124203
v -0.205643 0.000002 0.121476
v -0.201851 0.000002 0.119449
v -0.197737 0.000002 0.118201
v -0.193458 0.000002 0.117780
v -0.189179 0.000002 0.118201
v -0.185065 0.000002 0.119449
v -0.181274 0.000002 0.121476
v -0.177950 0.000002 0.124203
v -0.175223 0.000002 0.127527
v -0.173196 0.000002 0.131319
v -0.171948 0.000002 0.135433
v -0.171526 0.000002 0.139711
v -0.171948 0.000002 0.143990
v -0.173196 0.000002 0.148104
v -0.175223 0.000002 0.151896
v -0.177950 0.000002 0.155219
v -0.181274 0.000002 0.157947
v -0.185065 0.000002 0.159974
v -0.189179 0.000002 0.161222
v 0.173048 0.110436 0.151814
v 0.179819 0.110436 0.151147
v 0.186330 0.110436 0.149172
v 0.192330 0.110436 0.145965
v 0.197590 0.110436 0.141648
v 0.201906 0.110436 0.136389
v 0.205114 0.110436 0.130388
v 0.207089 0.110436 0.123877
v 0.207756 0.110436 0.117106
v 0.207089 0.110436 0.110335
v 0.205114 0.110436 0.103824
v 0.201906 0.110436 0.097823
v 0.197590 0.110436 0.092563
v 0.192330 0.110436 0.088247
v 0.186330 0.110436 0.085040
v 0.179819 0.110436 0.083065
v 0.173048 0.110436 0.082398
v 0.166276 0.110436 0.083065
v 0.159765 0.110436 0.085040
v 0.153765 0.110436 0.088247
v 0.148505 0.110436 0.092563
v 0.144189 0.110436 0.097823
v 0.140981 0.110436 0.103824
v 0.139006 0.110436 0.110335
v 0.138339 0.110436 0.117106
v 0.139006 0.110436 0.123877
v 0.140981 0.110436 0.130388
v 0.144189 0.110436 0.136389
v 0.148505 0.110436 0.141648
v 0.153765 0.110436 0.145965
v 0.159765 0.110436 0.149172
v 0.166276 0.110436 0.151147
v 0.197392 0.000002 0.161643
v 0.201671 0.000002 0.161222
v 0.205785 0.000002 0.159974
v 0.209576 0.000002 0.157947
v 0.212900 0.000002 0.155219
v 0.215627 0.000002 0.151896
v 0.217654 0.000002 0.148104
v 0.218902 0.000002 0.143990
v 0.219323 0.000002 0.139711
v 0.218902 0.000002 0.135433
v 0.217654 0.000002 0.131318
v 0.215627 0.000002 0.127527
v 0.212900 0.000002 0.124203
v 0.209576 0.000002 0.121476
v 0.205785 0.000002 0.119449
v 0.201671 0.000002 0.118201
v 0.197392 0.000002 0.117780
v 0.193113 0.000002 0.118201
v 0.188999 0.000002 0.119449
v 0.185207 0.000002 0.121476
v 0.181884 0.000002 0.124203
v 0.179156 0.000002 0.127527
v 0.177130 0.000002 0.131318
v 0.175882 0.000002 0.135433
v 0.175460 0.000002 0.139711
v 0.175882 0.000002 0.143990
v 0.177130 0.000002 0.148104
v 0.179156 0.000002 0.151896
v 0.181884 0.000002 0.155219
v 0.185207 0.000002 0.157947
v 0.188999 0.000002 0.159974
v 0.193113 0.000002 0.161222
vn 0.0135 0.0857 -0.9962
vn -0.1829 0.1251 -0.9751
vn -0.3709 0.1549 -0.9156
vn -0.5435 0.1740 -0.8212
vn -0.6948 0.1818 -0.6958
vn -0.8198 0.1783 -0.5442
vn -0.9139 0.1634 -0.3716
vn -0.9733 0.1376 -0.1837
vn -0.9947 0.1016 0.0126
vn -0.9762 0.0568 0.2094
vn -0.9174 0.0051 0.3980
vn -0.8204 -0.0512 0.5694
vn -0.6901 -0.1093 0.7154
vn -0.5334 -0.1663 0.8294
vn -0.3585 -0.2196 0.9074
vn -0.1740 -0.2671 0.9478
vn 0.0120 -0.3075 0.9515
vn 0.1927 -0.3397 0.9206
vn 0.3626 -0.3634 0.8582
vn 0.5173 -0.3783 0.7677
vn 0.6532 -0.3843 0.6524
vn 0.7672 -0.3816 0.5156
vn 0.8562 -0.3700 0.3605
vn 0.9172 -0.3497 0.1909
vn 0.9471 -0.3206 0.0110
vn 0.9431 -0.2833 -0.1739
vn 0.9031 -0.2383 -0.3574
vn 0.8261 -0.1869 -0.5317
vn 0.7134 -0.1310 -0.6884
vn 0.5688 -0.0731 -0.8192
vn 0.3984 -0.0158 -0.9171
vn 0.2103 0.0380 -0.9769
vn -0.0133 0.0916 -0.9957
vn -0.2038 0.1289 -0.9705
vn -0.3849 0.1568 -0.9096
vn -0.5505 0.1745 -0.8164
vn -0.6958 0.1818 -0.6948
vn -0.8165 0.1785 -0.5490
vn -0.9089 0.1647 -0.3832
vn -0.9692 0.1405 -0.2024
vn -0.9942 0.1067 -0.0123
vn -0.9815 0.0640 0.1802
vn -0.9300 0.0142 0.3672
vn -0.8405 -0.0409 0.5402
vn -0.7164 -0.0986 0.6907
vn -0.5635 -0.1561 0.8112
vn -0.3895 -0.2108 0.8966
vn -0.2030 -0.2602 0.9440
vn -0.0127 -0.3026 0.9530
vn 0.1739 -0.3367 0.9254
vn 0.3503 -0.3619 0.8639
vn 0.5112 -0.3778 0.7720
vn 0.6524 -0.3843 0.6532
vn 0.7701 -0.3814 0.5114
vn 0.8609 -0.3690 0.3503
vn 0.9214 -0.3473 0.1742
vn 0.9485 -0.3164 -0.0117
vn 0.9395 -0.2771 -0.2013
vn 0.8928 -0.2301 -0.3873
vn 0.8085 -0.1772 -0.5612
vn 0.6890 -0.1204 -0.7147
vn 0.5394 -0.0625 -0.8397
vn 0.3668 -0.0061 -0.9303
vn 0.1796 0.0460 -0.9827
vn -0.0135 0.0857 -0.9962
vn 0.1829 0.1251 -0.9751
vn 0.3709 0.1549 -0.9156
vn 0.5435 0.1740 -0.8212
vn 0.6948 0.1818 -0.6958
vn 0.8198 0.1783 -0.5442
vn 0.9139 0.1634 -0.3716
vn 0.9733 0.1376 -0.1837
vn 0.9947 0.1016 0.0126
vn 0.9762 0.0568 0.2094
vn 0.9174 0.0051 0.3980
vn 0.8204 -0.0512 0.5694
vn 0.6901 -0.1093 0.7154
vn 0.5334 -0.1663 0.8294
vn 0.3585 -0.2196 0.9074
vn 0.1740 -0.2671 0.9478
vn -0.0120 -0.3075 0.9515
vn -0.1927 -0.3397 0.9206
vn -0.3626 -0.3634 0.8582
vn -0.5173 -0.3783 0.7677
vn -0.6532 -0.3843 0.6524
vn -0.7672 -0.3816 0.5156
vn -0.8562 -0.3700 0.3605
vn -0.9172 -0.3497 0.1909
vn -0.9471 -0.3206 0.0110
vn -0.9431 -0.2833 -0.1739
vn -0.9031 -0.2383 -0.3574
vn -0.8261 -0.1869 -0.5317
vn -0.7134 -0.1310 -0.6884
vn -0.5688 -0.0731 -0.8192
vn -0.3984 -0.0158 -0.9171
vn -0.2103 0.0380 -0.9769
vn 0.0133 0.0916 -0.9957
vn 0.2038 0.1289 -0.9705
vn 0.3849 0.1568 -0.9096
vn 0.5505 0.1745 -0.8164
vn 0.6958 0.1818 -0.6949
vn 0.8165 0.1785 -0.5490
vn 0.9089 0.1647 -0.3832
vn 0.9692 0.1405 -0.2024
vn 0.9942 0.1067 -0.0123
vn 0.9815 0.0640 0.1802
vn 0.9300 0.0142 0.3672
vn 0.8405 -0.0409 0.5402
vn 0.7164 -0.0986 0.6907
vn 0.5635 -0.1561 0.8112
vn 0.3895 -0.2108 0.8966
vn 0.2030 -0.2602 0.9440
vn 0.0127 -0.3026 0.9530
vn -0.1739 -0.3367 0.9254
vn -0.3503 -0.3619 0.8639
vn -0.5112 -0.3778 0.7720
vn -0.6524 -0.3843 0.6532
vn -0.7701 -0.3814 0.5114
vn -0.8609 -0.3690 0.3503
vn -0.9214 -0.3473 0.1742
vn -0.9485 -0.3164 -0.0117
vn -0.9395 -0.2771 -0.2013
vn -0.8928 -0.2301 -0.3873
vn -0.8085 -0.1772 -0.5612
vn -0.6890 -0.1204 -0.7147
vn -0.5394 -0.0625 -0.8397
vn -0.3668 -0.0061 -0.9303
vn -0.1796 0.0460 -0.9827
vn 0.0135 0.0857 0.9962
vn -0.1829 0.1251 0.9751
vn -0.3709 0.1549 0.9156
vn -0.5435 0.1740 0.8212
vn -0.6948 0.1818 0.6958
vn -0.8198 0.1783 0.5442
vn -0.9139 0.1634 0.3716
vn -0.9733 0.1376 0.1837
vn -0.9947 0.1016 -0.0126
vn -0.9762 0.0568 -0.2094
vn -0.9174 0.0051 -0.3980
vn -0.8204 -0.0512 -0.5694
vn -0.6901 -0.1093 -0.7154
vn -0.5334 -0.1663 -0.8294
vn -0.3585 -0.2196 -0.9074
vn -0.1740 -0.2671 -0.9478
vn 0.0120 -0.3075 -0.9515
vn 0.1927 -0.3397 -0.9206
vn 0.3626 -0.3634 -0.8582
vn 0.5173 -0.3783 -0.7677
vn 0.6532 -0.3843 -0.6524
vn 0.7672 -0.3816 -0.5156
vn 0.8562 -0.3700 -0.3605
vn 0.9172 -0.3497 -0.1909
vn 0.9471 -0.3206 -0.0110
vn 0.9431 -0.2833 0.1739
vn 0.9031 -0.2383 0.3574
vn 0.8261 -0.1869 0.5317
vn 0.7134 -0.1310 0.6884
vn 0.5688 -0.0731 0.8192
vn 0.3984 -0.0158 0.9171
vn 0.2103 0.0380 0.9769
vn -0.0133 0.0916 0.9957
vn -0.2038 0.1289 0.9705
vn -0.3849 0.1568 0.9096
vn -0.5505 0.1745 0.8164
vn -0.6958 0.1818 0.6949
vn -0.8165 0.1785 0.5490
vn -0.9089 0.1647 0.3832
vn -0.9692 0.1405 0.2024
vn -0.9942 0.1067 0.0123
vn -0.9815 0.0640 -0.1802
vn -0.9300 0.0142 -0.3672
vn -0.8405 -0.0409 -0.5402
vn -0.7164 -0.0986 -0.6907
vn -0.5635 -0.1561 -0.8112
vn -0.3895 -0.2108 -0.8966
vn -0.2030 -0.2602 -0.9440
vn -0.0127 -0.3026 -0.9530
vn 0.1739 -0.3367 -0.9254
vn 0.3503 -0.3619 -0.8639
vn 0.5112 -0.3778 -0.7720
vn 0.6524 -0.3843 -0.6532
vn 0.7701 -0.3814 -0.5114
vn 0.8609 -0.3690 -0.3503
vn 0.9214 -0.3473 -0.1742
vn 0.9485 -0.3164 0.0117
vn 0.9395 -0.2771 0.2013
vn 0.8928 -0.2301 0.3873
vn 0.8085 -0.1772 0.5612
vn 0.6890 -0.1204 0.7147
vn 0.5394 -0.0625 0.8397
vn 0.3668 -0.0061 0.9303
vn 0.1796 0.0460 0.9827
vn -0.0135 0.0857 0.9962
vn 0.1829 0.1251 0.9751
vn 0.3709 0.1549 0.9156
vn 0.5435 0.1740 0.8212
vn 0.6948 0.1818 0.6958
vn 0.8198 0.1783 0.5442
vn 0.9139 0.1634 0.3716
vn 0.9733 0.1376 0.1837
vn 0.9947 0.1016 -0.0126
vn 0.9762 0.0568 -0.2094
vn 0.9174 0.0051 -0.3980
vn 0.8204 -0.0512 -0.5694
vn 0.6901 -0.1093 -0.7154
vn 0.5334 -0.1663 -0.8294
vn 0.3585 -0.2196 -0.9074
vn 0.1740 -0.2671 -0.9478
vn -0.0120 -0.3075 -0.9515
vn -0.1927 -0.3397 -0.9206
vn -0.3626 -0.3634 -0.8582
vn -0.5173 -0.3783 -0.7677
vn -0.6532 -0.3843 -0.6524
vn -0.7672 -0.3816 -0.5156
vn -0.8562 -0.3700 -0.3605
vn -0.9172 -0.3497 -0.1909
vn -0.9471 -0.3206 -0.0110
vn -0.9431 -0.2833 0.1739
vn -0.9031 -0.2383 0.3574
vn -0.8261 -0.1869 0.5317
vn -0.7134 -0.1310 0.6884
vn -0.5688 -0.0731 0.8192
vn -0.3984 -0.0158 0.9171
vn -0.2103 0.0380 0.9769
vn 0.0133 0.0916 0.9957
vn 0.2038 0.1289 0.9705
vn 0.3849 0.1568 0.9096
vn 0.5505 0.1745 0.8164
vn 0.6958 0.1818 0.6948
vn 0.8165 0.1785 0.5490
vn 0.9089 0.1647 0.3832
vn 0.9692 0.1405 0.2024
vn 0.9942 0.1067 0.0123
vn 0.9815 0.0640 -0.1802
vn 0.9300 0.0142 -0.3672
vn 0.8405 -0.0409 -0.5402
vn 0.7164 -0.0986 -0.6907
vn 0.5635 -0.1561 -0.8112
vn 0.3895 -0.2108 -0.8966
vn 0.2030 -0.2602 -0.9440
vn 0.0127 -0.3026 -0.9530
vn -0.1739 -0.3367 -0.9254
vn -0.3503 -0.3619 -0.8639
vn -0.5112 -0.3778 -0.7720
vn -0.6524 -0.3843 -0.6532
vn -0.7701 -0.3814 -0.5114
vn -0.8609 -0.3690 -0.3503
vn -0.9214 -0.3473 -0.1742
vn -0.9485 -0.3164 0.0117
vn -0.9395 -0.2771 0.2013
vn -0.8928 -0.2301 0.3873
vn -0.8085 -0.1772 0.5612
vn -0.6890 -0.1204 0.7147
vn -0.5394 -0.0625 0.8397
vn -0.3668 -0.0061 0.9303
vn -0.1796 0.0460 0.9827
vt 0.151705 0.684811
vt 0.151656 0.663415
vt 0.501474 0.603312
vt 0.501505 0.616832
vt 0.100770 0.304759
vt 0.103593 0.283549
vt 0.471105 0.363283
vt 0.469321 0.376686
vt 0.151317 0.706204
vt 0.501260 0.630350
vt 0.099489 0.326117
vt 0.468511 0.390181
vt 0.150675 0.727591
vt 0.500854 0.643864
vt 0.099670 0.347513
vt 0.468626 0.403700
vt 0.149993 0.748976
vt 0.500424 0.657378
vt 0.101186 0.368855
vt 0.469583 0.417187
vt 0.149505 0.770367
vt 0.500115 0.670894
vt 0.103871 0.390083
vt 0.471280 0.430601
vt 0.149452 0.791764
vt 0.500081 0.684413
vt 0.107529 0.411164
vt 0.473591 0.443921
vt 0.150075 0.813151
vt 0.500475 0.697928
vt 0.137081 0.536083
vt 0.132371 0.515211
vt 0.489288 0.509666
vt 0.492264 0.522853
vt 0.111936 0.432102
vt 0.476376 0.457151
vt 0.151600 0.834493
vt 0.501439 0.711413
vt 0.141269 0.557065
vt 0.494911 0.536111
vt 0.116858 0.452925
vt 0.479486 0.470308
vt 0.140449 0.183705
vt 0.151703 0.165507
vt 0.501505 0.288692
vt 0.494394 0.300190
vt 0.144815 0.578166
vt 0.497152 0.549444
vt 0.122056 0.473680
vt 0.482771 0.483424
vt 0.130303 0.202543
vt 0.487983 0.312094
vt 0.147639 0.599375
vt 0.498936 0.562847
vt 0.127299 0.494424
vt 0.486084 0.496531
vt 0.121428 0.222012
vt 0.482374 0.324397
vt 0.149704 0.620672
vt 0.500241 0.576304
vt 0.113958 0.242062
vt 0.477654 0.337067
vt 0.151024 0.642027
vt 0.501075 0.589798
vt 0.107994 0.262610
vt 0.473885 0.350051
s 1
usemtl CC0Textures/Wood014/2K-JPG.001
f 9/1/9 8/2/8 40/3/40 41/4/41
f 23/5/23 22/6/22 54/7/54 55/8/55
f 10/9/10 9/1/9 41/4/41 42/10/42
f 24/11/24 23/5/23 55/8/55 56/12/56
f 11/13/11 10/9/10 42/10/42 43/14/43
f 25/15/25 24/11/24 56/12/56 57/16/57
f 12/17/12 11/13/11 43/14/43 44/18/44
f 26/19/26 25/15/25 57/16/57 58/20/58
f 13/21/13 12/17/12 44/18/44 45/22/45
f 27/23/27 26/19/26 58/20/58 59/24/59
f 14/25/14 13/21/13 45/22/45 46/26/46
f 28/27/28 27/23/27 59/24/59 60/28/60
f 15/29/15 14/25/14 46/26/46 47/30/47
f 2/31/2 1/32/1 33/33/33 34/34/34
f 29/35/29 28/27/28 60/28/60 61/36/61
f 16/37/16 15/29/15 47/30/47 48/38/48
f 3/39/3 2/31/2 34/34/34 35/40/35
f 30/41/30 29/35/29 61/36/61 62/42/62
f 17/43/17 16/44/16 48/45/48 49/46/49
f 4/47/4 3/39/3 35/40/35 36/48/36
f 31/49/31 30/41/30 62/42/62 63/50/63
f 18/51/18 17/43/17 49/46/49 50/52/50
f 5/53/5 4/47/4 36/48/36 37/54/37
f 32/55/32 31/49/31 63/50/63 64/56/64
f 19/57/19 18/51/18 50/52/50 51/58/51
f 6/59/6 5/53/5 37/54/37 38/60/38
f 1/32/1 32/55/32 64/56/64 33/33/33
f 20/61/20 19/57/19 51/58/51 52/62/52
f 7/63/7 6/59/6 38/60/38 39/64/39
f 21/65/21 20/61/20 52/62/52 53/66/53
f 8/2/8 7/63/7 39/64/39 40/3/40
f 22/6/22 21/65/21 53/66/53 54/7/54
f 73/1/73 105/4/105 104/3/104 72/2/72
f 87/5/87 119/8/119 118/7/118 86/6/86
f 74/9/74 106/10/106 105/4/105 73/1/73
f 88/11/88 120/12/120 119/8/119 87/5/87
f 75/13/75 107/14/107 106/10/106 74/9/74
f 89/15/89 121/16/121 120/12/120 88/11/88
f 76/17/76 108/18/108 107/14/107 75/13/75
f 90/19/90 122/20/122 121/16/121 89/15/89
f 77/21/77 109/22/109 108/18/108 76/17/76
f 91/23/91 123/24/123 122/20/122 90/19/90
f 78/25/78 110/26/110 109/22/109 77/21/77
f 92/27/92 124/28/124 123/24/123 91/23/91
f 79/29/79 111/30/111 110/26/110 78/25/78
f 66/31/66 98/34/98 97/33/97 65/32/65
f 93/35/93 125/36/125 124/28/124 92/27/92
f 80/37/80 112/38/112 111/30/111 79/29/79
f 67/39/67 99/40/99 98/34/98 66/31/66
f 94/41/94 126/42/126 125/36/125 93/35/93
f 81/43/81 113/46/113 112/45/112 80/44/80
f 68/47/68 100/48/100 99/40/99 67/39/67
f 95/49/95 127/50/127 126/42/126 94/41/94
f 82/51/82 114/52/114 113/46/113 81/43/81
f 69/53/69 101/54/101 100/48/100 68/47/68
f 96/55/96 128/56/128 127/50/127 95/49/95
f 83/57/83 115/58/115 114/52/114 82/51/82
f 70/59/70 102/60/102 101/54/101 69/53/69
f 65/32/65 97/33/97 128/56/128 96/55/96
f 84/61/84 116/62/116 115/58/115 83/57/83
f 71/63/71 103/64/103 102/60/102 70/59/70
f 85/65/85 117/66/117 116/62/116 84/61/84
f 72/2/72 104/3/104 103/64/103 71/63/71
f 86/6/86 118/7/118 117/66/117 85/65/85
f 137/1/137 169/4/169 168/3/168 136/2/136
f 151/5/151 183/8/183 182/7/182 150/6/150
f 138/9/138 170/10/170 169/4/169 137/1/137
f 152/11/152 184/12/184 183/8/183 151/5/151
f 139/13/139 171/14/171 170/10/170 138/9/138
f 153/15/153 185/16/185 184/12/184 152/11/152
f 140/17/140 172/18/172 171/14/171 139/13/139
f 154/19/154 186/20/186 185/16/185 153/15/153
f 141/21/141 173/22/173 172/18/172 140/17/140
f 155/23/155 187/24/187 186/20/186 154/19/154
f 142/25/142 174/26/174 173/22/173 141/21/141
f 156/27/156 188/28/188 187/24/187 155/23/155
f 143/29/143 175/30/175 174/26/174 142/25/142
f 130/31/130 162/34/162 161/33/161 129/32/129
f 157/35/157 189/36/189 188/28/188 156/27/156
f 144/37/144 176/38/176 175/30/175 143/29/143
f 131/39/131 163/40/163 162/34/162 130/31/130
f 158/41/158 190/42/190 189/36/189 157/35/157
f 145/43/145 177/46/177 176/45/176 144/44/144
f 132/47/132 164/48/164 163/40/163 131/39/131
f 159/49/159 191/50/191 190/42/190 158/41/158
f 146/51/146 178/52/178 177/46/177 145/43/145
f 133/53/133 165/54/165 164/48/164 132/47/132
f 160/55/160 192/56/192 191/50/191 159/49/159
f 147/57/147 179/58/179 178/52/178 146/51/146
f 134/59/134 166/60/166 165/54/165 133/53/133
f 129/32/129 161/33/161 192/56/192 160/55/160
f 148/61/148 180/62/180 179/58/179 147/57/147
f 135/63/135 167/64/167 166/60/166 134/59/134
f 149/65/149 181/66/181 180/62/180 148/61/148
f 136/2/136 168/3/168 167/64/167 135/63/135
f 150/6/150 182/7/182 181/66/181 149/65/149
f 201/1/201 200/2/200 232/3/232 233/4/233
f 215/5/215 214/6/214 246/7/246 247/8/247
f 202/9/202 201/1/201 233/4/233 234/10/234
f 216/11/216 215/5/215 247/8/247 248/12/248
f 203/13/203 202/9/202 234/10/234 235/14/235
f 217/15/217 216/11/216 248/12/248 249/16/249
f 204/17/204 203/13/203 235/14/235 236/18/236
f 218/19/218 217/15/217 249/16/249 250/20/250
f 205/21/205 204/17/204 236/18/236 237/22/237
f 219/23/219 218/19/218 250/20/250 251/24/251
f 206/25/206 205/21/205 237/22/237 238/26/238
f 220/27/220 219/23/219 251/24/251 252/28/252
f 207/29/207 206/25/206 238/26/238 239/30/239
f 194/31/194 193/32/193 225/33/225 226/34/226
f 221/35/221 220/27/220 252/28/252 253/36/253
f 208/37/208 207/29/207 239/30/239 240/38/240
f 195/39/195 194/31/194 226/34/226 227/40/227
f 222/41/222 221/35/221 253/36/253 254/42/254
f 209/43/209 208/44/208 240/45/240 241/46/241
f 196/47/196 195/39/195 227/40/227 228/48/228
f 223/49/223 222/41/222 254/42/254 255/50/255
f 210/51/210 209/43/209 241/46/241 242/52/242
f 197/53/197 196/47/196 228/48/228 229/54/229
f 224/55/224 223/49/223 255/50/255 256/56/256
f 211/57/211 210/51/210 242/52/242 243/58/243
f 198/59/198 197/53/197 229/54/229 230/60/230
f 193/32/193 224/55/224 256/56/256 225/33/225
f 212/61/212 211/57/211 243/58/243 244/62/244
f 199/63/199 198/59/198 230/60/230 231/64/231
f 213/65/213 212/61/212 244/62/244 245/66/245
f 200/2/200 199/63/199 231/64/231 232/3/232
f 214/6/214 213/65/213 245/66/245 246/7/246
