# Blender 4.3.0
# www.blender.org
mtllib shelf.mtl
o table.003
v -0.582038 0.201014 0.283465
v -0.580038 0.199014 0.283465
v -0.580038 0.201014 0.285465
v -0.582038 0.201014 -0.283465
v -0.580038 0.201014 -0.285465
v -0.580038 0.199014 -0.283465
v 0.582038 0.201014 -0.283465
v 0.580038 0.199014 -0.283465
v 0.580038 0.201014 -0.285465
v 0.582038 0.201014 0.283465
v 0.580038 0.201014 0.285465
v 0.580038 0.199014 0.283465
v -0.582038 0.227014 0.283465
v -0.580038 0.227014 0.285465
v -0.580038 0.229014 0.283465
v -0.582038 0.227014 -0.283465
v -0.580038 0.229014 -0.283465
v -0.580038 0.227014 -0.285465
v 0.582038 0.227014 -0.283465
v 0.580038 0.227014 -0.285465
v 0.580038 0.229014 -0.283465
v 0.582038 0.227014 0.283465
v 0.580038 0.229014 0.283465
v 0.580038 0.227014 0.285465
vn -0.0017 -0.0712 0.9975
vn 0.0017 -0.0712 0.9975
vn 0.0017 0.0712 0.9975
vn -0.0017 0.0712 0.9975
vn 0.0017 1.0000 0.0035
vn 0.0017 1.0000 -0.0035
vn -0.0017 1.0000 -0.0035
vn -0.0017 1.0000 0.0035
vn 0.0017 -1.0000 0.0035
vn -0.0017 -1.0000 0.0035
vn -0.0017 -1.0000 -0.0035
vn 0.0017 -1.0000 -0.0035
vn 0.9975 -0.0711 0.0034
vn 0.9975 -0.0711 -0.0034
vn 0.9975 0.0711 -0.0034
vn 0.9975 0.0711 0.0034
vn 0.0017 -0.0712 -0.9975
vn -0.0017 -0.0712 -0.9975
vn -0.0017 0.0712 -0.9975
vn 0.0017 0.0712 -0.9975
vn -0.9975 -0.0711 0.0034
vn -0.0016 -0.0712 0.9975
vn -0.9975 -0.0711 -0.0034
vn 0.0016 -0.0712 -0.9975
vn -0.9975 0.0711 0.0034
vn -0.9975 0.0712 -0.0033
vn -0.0016 0.0712 -0.9975
vn 0.9975 0.0712 0.0033
vn 0.0016 0.0712 0.9975
vn -0.9975 0.0711 -0.0034
vn -0.0016 0.0712 0.9975
vn -0.9975 0.0711 0.0033
vn -0.9975 -0.0711 0.0033
vn -0.9975 -0.0711 -0.0033
vn -0.9975 0.0711 -0.0033
vn -0.0016 -0.0712 -0.9975
vn 0.0016 0.0712 -0.9975
vn 0.9975 0.0711 -0.0033
vn 0.9975 -0.0711 -0.0033
vn 0.9975 -0.0711 0.0033
vn 0.9975 0.0711 0.0033
vn 0.0016 -0.0712 0.9975
vt 1.392116 -0.413682
vt 1.392116 1.358656
vt 1.352394 1.358656
vt 1.352394 -0.413682
vt 0.434305 -0.413682
vt 1.300449 -0.413682
vt 1.300449 1.358656
vt 0.434306 1.358656
vt -0.437949 1.358656
vt -0.437950 -0.413682
vt 0.428194 -0.413682
vt 0.428194 1.358656
vt 1.437950 -0.413682
vt 1.437950 0.452461
vt 1.398227 0.452461
vt 1.398227 -0.413682
vt 1.346283 -0.413682
vt 1.346282 1.358656
vt 1.306560 1.358656
vt 1.306560 -0.413682
vt -0.437949 -0.416738
vt -0.441005 -0.413682
vt 1.346282 1.361711
vt 1.349338 1.358656
vt 0.428194 1.361711
vt 0.431250 1.358656
vt 1.437949 -0.416738
vt 1.441005 -0.413682
vt 1.398227 1.324716
vt 1.398227 1.327772
vt 1.395172 1.324716
vt 1.300449 1.361711
vt 1.303505 1.358656
vt 1.306560 -0.416738
vt 1.303505 -0.413682
vt 0.434305 -0.416738
vt 0.431250 -0.413682
vt -0.437949 1.361711
vt 0.428194 -0.416738
vt 0.431250 -0.413682
vt -0.441005 1.358656
vt 1.300449 -0.416738
vt 1.300449 1.361711
vt 0.434306 1.361711
vt 0.431250 1.358656
vt 1.437950 1.327772
vt 1.398227 1.327772
vt 1.437950 1.324716
vt 1.306560 1.361711
vt 1.346282 -0.416738
vt 1.398227 -0.416738
vt 1.437950 0.458572
vt 1.398227 0.458572
s 0
usemtl bois_clair_vernis
f 3/1/1 11/2/2 24/3/3 14/4/4
f 23/5/5 21/6/6 17/7/7 15/8/8
f 12/9/9 2/10/10 6/11/11 8/12/12
f 10/13/13 7/14/14 19/15/15 22/16/16
f 9/17/17 5/18/18 18/19/19 20/20/20
f 1/21/21 2/10/10 3/22/22
f 4/23/23 5/18/18 6/24/11
f 7/25/14 8/12/12 9/26/24
f 10/13/13 11/27/2 12/28/9
f 13/29/25 14/30/4 15/31/8
f 16/32/26 17/7/7 18/33/27
f 19/34/15 20/20/20 21/35/6
f 22/36/28 23/5/5 24/37/29
f 7/25/14 10/38/13 12/9/9 8/12/12
f 1/21/21 4/39/23 6/11/11 2/10/10
f 8/12/12 6/11/11 5/40/18 9/26/17
f 11/41/2 3/22/1 2/10/10 12/9/9
f 21/6/6 23/5/5 22/36/16 19/42/15
f 15/8/8 17/7/7 16/43/30 13/44/25
f 20/20/20 18/19/19 17/7/7 21/6/6
f 23/5/5 15/8/8 14/45/4 24/37/3
f 3/46/22 14/47/31 13/29/32 1/48/33
f 4/23/34 16/49/35 18/19/27 5/18/36
f 9/17/24 20/20/37 19/34/38 7/50/39
f 10/13/40 22/16/41 24/51/29 11/27/42
f 4/52/23 1/48/21 13/29/25 16/53/30
